{
	"asset":{
		"version":"2.0",
		"generator":"Houdini GLTF 2.0 Exporter"
	},
	"accessors":[
		{
			"bufferView":0,
			"componentType":5123,
			"count":15000,
			"type":"SCALAR",
			"min":[0
			],
			"max":[4800
			]
		},
		{
			"bufferView":1,
			"componentType":5126,
			"count":4801,
			"type":"VEC3",
			"min":[-23.0109749,0,-48.697319
			],
			"max":[23.0109749,70.9352722,48.697319
			]
		},
		{
			"bufferView":2,
			"componentType":5126,
			"count":4801,
			"type":"VEC4",
			"min":[-0.987707734,-0.996282935,-0.967854857,1
			],
			"max":[0.997910202,0.988643587,0.999153614,1
			]
		},
		{
			"bufferView":3,
			"componentType":5126,
			"count":4801,
			"type":"VEC2",
			"min":[-0.000483668933,-0.000202059746
			],
			"max":[0.999716341,0.999643385
			]
		},
		{
			"bufferView":4,
			"componentType":5126,
			"count":4801,
			"type":"VEC3",
			"min":[-0.997822642,-0.999239385,-0.995382249
			],
			"max":[0.999590993,0.999456942,0.989041924
			]
		}
	],
	"buffers":[
		{
			"uri":"print02_data.bin",
			"byteLength":260448,
			"name":"main_buffer"
		}
	],
	"bufferViews":[
		{
			"buffer":0,
			"byteLength":30000,
			"target":34963
		},
		{
			"buffer":0,
			"byteOffset":30000,
			"byteLength":57612,
			"target":34962
		},
		{
			"buffer":0,
			"byteOffset":87612,
			"byteLength":76816,
			"target":34962
		},
		{
			"buffer":0,
			"byteOffset":164428,
			"byteLength":38408,
			"target":34962
		},
		{
			"buffer":0,
			"byteOffset":202836,
			"byteLength":57612,
			"target":34962
		}
	],
	"nodes":[
		{
			"children":[1
			],
			"name":"Root"
		},
		{
			"name":"print_02_gltf",
			"mesh":0
		}
	],
	"meshes":[
		{
			"primitives":[
				{
					"attributes":{
						"POSITION":1,
						"TANGENT":2,
						"NORMAL":4,
						"TEXCOORD_0":3
					},
					"indices":0
				}
			],
			"name":"OUT_print_01_gltf"
		}
	],
	"scenes":[
		{
			"nodes":[0
			]
		}
	],
	"scene":0
}
