{
	"asset":{
		"version":"2.0",
		"generator":"Houdini GLTF 2.0 Exporter"
	},
	"accessors":[
		{
			"bufferView":0,
			"componentType":5123,
			"count":15000,
			"type":"SCALAR",
			"min":[0
			],
			"max":[4064
			]
		},
		{
			"bufferView":1,
			"componentType":5126,
			"count":4065,
			"type":"VEC3",
			"min":[-48.3114243,0,-31.0365944
			],
			"max":[48.3114243,39.5568428,31.0365944
			]
		},
		{
			"bufferView":2,
			"componentType":5126,
			"count":4065,
			"type":"VEC4",
			"min":[-1,-0.96402818,-0.999238193,1
			],
			"max":[0.998186171,0.99716866,0.999452651,1
			]
		},
		{
			"bufferView":3,
			"componentType":5126,
			"count":4065,
			"type":"VEC2",
			"min":[0.000320650055,0.000461995602
			],
			"max":[0.999519527,0.999667108
			]
		},
		{
			"bufferView":4,
			"componentType":5126,
			"count":4065,
			"type":"VEC3",
			"min":[-0.999999285,-1,-0.999999881
			],
			"max":[0.999999106,0.999999881,1
			]
		}
	],
	"buffers":[
		{
			"uri":"print03_data.bin",
			"byteLength":225120,
			"name":"main_buffer"
		}
	],
	"bufferViews":[
		{
			"buffer":0,
			"byteLength":30000,
			"target":34963
		},
		{
			"buffer":0,
			"byteOffset":30000,
			"byteLength":48780,
			"target":34962
		},
		{
			"buffer":0,
			"byteOffset":78780,
			"byteLength":65040,
			"target":34962
		},
		{
			"buffer":0,
			"byteOffset":143820,
			"byteLength":32520,
			"target":34962
		},
		{
			"buffer":0,
			"byteOffset":176340,
			"byteLength":48780,
			"target":34962
		}
	],
	"nodes":[
		{
			"children":[1
			],
			"name":"Root"
		},
		{
			"name":"print_03_gltf",
			"mesh":0
		}
	],
	"meshes":[
		{
			"primitives":[
				{
					"attributes":{
						"POSITION":1,
						"TANGENT":2,
						"NORMAL":4,
						"TEXCOORD_0":3
					},
					"indices":0
				}
			],
			"name":"OUT_print_03_gltf"
		}
	],
	"scenes":[
		{
			"nodes":[0
			]
		}
	],
	"scene":0
}
