{
	"asset":{
		"version":"2.0",
		"generator":"Houdini GLTF 2.0 Exporter"
	},
	"accessors":[
		{
			"bufferView":0,
			"componentType":5123,
			"count":22500,
			"type":"SCALAR",
			"min":[0
			],
			"max":[5984
			]
		},
		{
			"bufferView":1,
			"componentType":5126,
			"count":5985,
			"type":"VEC3",
			"min":[-52.9930801,0,-52.9276581
			],
			"max":[52.9930801,57.0269814,52.9276581
			]
		},
		{
			"bufferView":2,
			"componentType":5126,
			"count":5985,
			"type":"VEC4",
			"min":[-0.777819395,-0.862028599,-0.999982297,1
			],
			"max":[0.999921381,0.974923372,0.908770502,1
			]
		},
		{
			"bufferView":3,
			"componentType":5126,
			"count":5985,
			"type":"VEC2",
			"min":[0.00040428128,0.000443994999
			],
			"max":[0.999559522,0.999559939
			]
		},
		{
			"bufferView":4,
			"componentType":5126,
			"count":5985,
			"type":"VEC3",
			"min":[-0.999861777,-1,-0.99999404
			],
			"max":[0.999995828,1,0.999940991
			]
		}
	],
	"buffers":[
		{
			"uri":"print01_data.bin",
			"byteLength":332280,
			"name":"main_buffer"
		}
	],
	"bufferViews":[
		{
			"buffer":0,
			"byteLength":45000,
			"target":34963
		},
		{
			"buffer":0,
			"byteOffset":45000,
			"byteLength":71820,
			"target":34962
		},
		{
			"buffer":0,
			"byteOffset":116820,
			"byteLength":95760,
			"target":34962
		},
		{
			"buffer":0,
			"byteOffset":212580,
			"byteLength":47880,
			"target":34962
		},
		{
			"buffer":0,
			"byteOffset":260460,
			"byteLength":71820,
			"target":34962
		}
	],
	"nodes":[
		{
			"children":[1
			],
			"name":"Root"
		},
		{
			"name":"print_01_gltf",
			"mesh":0
		}
	],
	"meshes":[
		{
			"primitives":[
				{
					"attributes":{
						"POSITION":1,
						"TANGENT":2,
						"NORMAL":4,
						"TEXCOORD_0":3
					},
					"indices":0
				}
			],
			"name":"OUT_print_01_gltf"
		}
	],
	"scenes":[
		{
			"nodes":[0
			]
		}
	],
	"scene":0
}
