<?xml version="1.0" encoding="UTF-8"?>
<svg id="Layer_1" xmlns="http://www.w3.org/2000/svg" version="1.1" viewBox="0 0 595.3 180.3">
  <!-- Generator: Adobe Illustrator 29.0.1, SVG Export Plug-In . SVG Version: 2.1.0 Build 192)  -->
  <defs>
    <style>
      .st0 {
        fill: #fff;
      }

      .st1 {
        fill: none;
      }

      .st2 {
        fill: #231f20;
      }
    </style>
  </defs>
  <path class="st0" d="M33.8,44.2c0-3.9,3.2-7.1,7.1-7.1h55c4,0,7.2,3.2,7.2,7.1v103.5c0,3.9-3.2,7.1-7.2,7.1h-55c-3.9,0-7.1-3.2-7.1-7.1V44.2"/>
  <polygon class="st2" points="245.8 128.2 256.3 128.2 256.3 61.9 245.3 61.9 245.3 128.2 245.8 128.2"/>
  <polygon class="st2" points="267.8 128.2 278.4 128.2 278.4 61.9 267.3 61.9 267.3 128.2 267.8 128.2"/>
  <path class="st2" d="M444,148.4c6.8,1.1,13-1.6,17-5.4,5.7-5.4,9.3-12.4,15.4-28.8l11.6-31,.2-.7h-11.1v.3c-.1,0-10.6,30.7-10.6,30.7l-11.1-30.7v-.3h-12.3l.2.7,17.4,43.5c-1.4,3.9-3.6,7.1-5.8,9.3-2.8,2.7-6.7,3.9-10.9,3.1v9.3"/>
  <path class="st2" d="M420.3,120.5c-6.9,0-12-6-12-15.2s5.1-15.2,12-15.2,12.1,6,12.1,15.2-5.1,15.2-12.1,15.2M420.4,81.4c-13.7,0-23,9.9-23,24s9.2,24,23,24,23-9.7,23-24-9.4-24-23-24"/>
  <path class="st2" d="M215,120.4c-6.9,0-12-6.1-12-15.2s5.1-15.2,12-15.2,12.1,6,12.1,15.2-5.1,15.2-12.1,15.2M215,81.3c-14,0-23.1,9.7-23.1,23.9s9,24,23.1,24,23-9.7,23-24-8.9-24-23-24"/>
  <rect class="st2" x="321.1" y="93.5" width="21.7" height="8.3"/>
  <path class="st2" d="M163,73.4h-3.7c-1.6,0-2.6.1-3.4.1v20h6.5c7.6,0,12.8-3.9,12.8-10.2s-4.2-9.9-12.2-9.9M184.5,109.2c2.3,7.3,3.5,14.5,4.4,18.9h-11.8c-.7-3.7-1.3-8.9-3.4-15.2-2.4-7.5-5.3-10.9-12.3-10.9h-5.4v26.1h-11.1v-63.6c2.4,0,5.1-.2,8.1-.2h8.9c9,0,14.9,1.9,19.1,5.4,3.4,3,5.3,7.4,5.3,12.6,0,8.4-4.9,13.2-10.4,15.4,4,1.9,6.5,5.1,8.6,11.5"/>
  <path class="st2" d="M368.9,73.4h-3.7c-1.6,0-2.6.1-3.4.1v20h6.5c7.6,0,12.8-3.9,12.8-10.2s-4.2-9.9-12.2-9.9M390.4,109.2c2.3,7.3,3.5,14.5,4.4,18.9h-11.8c-.7-3.7-1.3-8.9-3.4-15.2-2.4-7.5-5.3-10.9-12.3-10.9h-5.4v26.1h-11.1v-63.6c2.4,0,5.1-.2,8.1-.2h9c9,0,14.9,1.9,19,5.4,3.5,3,5.3,7.4,5.3,12.6,0,8.4-4.9,13.2-10.4,15.4,4,1.9,6.5,5.1,8.6,11.5"/>
  <path class="st2" d="M288.3,117.8c2.5,1.6,7.2,3.1,11.2,3.1s7.6-1.8,7.6-5.1-1.8-4.8-7.6-6.9c-8.5-3-12.3-8-12.3-13.4,0-7.7,6.4-14,16.6-14s9.1,1.4,11.7,3l-2.2,7.4c-2.5-1.2-5.4-2.2-9.5-2.1-4.2,0-5.9,2-5.9,4.7s3.2,5,7.3,6.4c8.2,2.7,12.5,7.3,12.5,14.2,0,8.2-6.9,14.1-18.4,14.1s-10.2-1.1-13.3-3.4l2.2-7.9"/>
  <path class="st2" d="M523.7,126.6c-2.3,1.1-7.1,2.5-12.9,2.5-13.2-.1-23.1-9.2-23.1-23.2s8.9-24.3,24.9-24.3,8.8,1.2,11.2,2.4l-1.9,8c-1.9-1-4.8-1.6-9.1-1.6-9.4,0-13.8,6.2-13.7,14.9,0,9.8,5.4,15.2,13.7,15.2s7.2-1,9.4-1.9l1.5,7.9"/>
  <path class="st2" d="M556.9,100.1c0-4.5-1.3-10.6-9.5-10.6s-9.9,5.6-10.4,10.6h20M536.9,107.9c.3,9.4,5.9,12.7,13.7,12.7s9.2-.9,12.5-2.2l1.6,7.6c-3.5,1.5-8.8,3.2-15.6,3.2-14.4,0-23-9.5-23-23.3s7.8-24.4,21.9-24.4,19.2,12.5,19.2,21.7,0,3.5-.2,4.5h-30.1c0,0,0,0,0,0Z"/>
  <path class="st2" d="M59.3,44.4c-1,0-1.8.4-2.3.9-.7.7-1,1.6-1,2.9s.3,2.3,1,2.9c.5.5,1.3.9,2.3.9s1.8-.4,2.3-.9c.7-.6,1-1.6,1-2.9s-.4-2.2-1-2.9c-.5-.5-1.3-.9-2.3-.9ZM46.9,44.5h-2.5v3.1h2.5c1.4,0,2.3-.4,2.3-1.5,0-1.1-.9-1.6-2.3-1.6ZM96,40.1h-55c-2.3,0-4.2,1.9-4.2,4.2v12.2h63.4v-12.2c0-2.3-1.9-4.2-4.2-4.2ZM49.6,53.7c-.7-1-1.2-2.4-1.8-3.3-.4-.7-.8-1-1.7-1h-1.7v1.9c0,.9.3,2,.8,2.4h-4c.5-.3.8-1.4.8-2.4v-6.1c0-1-.3-2.1-.8-2.4h5.6c1.4,0,2.3,0,3,.3,1.1.4,1.8,1.5,1.8,2.9s-.8,2.4-2.5,2.8c.8.4,1.2,1.1,1.8,2.2h0c.5,1,1,2.1,1.9,2.7h-3.2ZM63,52.7c-1,.8-2.2,1.3-3.8,1.3s-2.8-.4-3.8-1.3c-1.1-1-1.9-2.5-1.9-4.5s.8-3.5,1.9-4.5c1-.8,2.2-1.2,3.8-1.2s2.8.4,3.8,1.2c1.1,1,1.9,2.4,1.9,4.5s-.8,3.5-1.9,4.5ZM75,50.9l-.4,2.8h-8.2c.6-.4.9-1.4.9-2.4v-6.1c0-.9-.3-2.1-.9-2.4h3.9c-.5.4-.8,1.5-.8,2.4v6.7h2.1c1.4,0,2.7-.2,3.3-1h0ZM84.9,50.9l-.4,2.8h-8.1c.5-.4.8-1.4.8-2.4v-6.1c0-.9-.3-2.1-.8-2.4h3.9c-.5.4-.8,1.5-.8,2.4v6.7h2.2c1.4,0,2.7-.2,3.3-1h0ZM90.9,53.9c-1.3,0-3-.2-4.1-.8v-2.6c.2.4.8.8,1.2,1,1,.6,1.9.7,2.9.7,1.5,0,2.4-.7,2.4-1.6s-1.2-1.3-2.9-1.6c-2.2-.3-3.5-1.3-3.5-3.1,0-1.8,1.8-3.2,4.2-3.2s2.8.4,3.6.7v2.4c-.2-.4-.8-.7-1.3-1-.7-.2-1.5-.4-2.2-.4-1.2,0-1.9.5-1.9,1.1,0,1,1,1.1,3.1,1.6,2.1.4,3.4,1.3,3.3,3.2,0,2.2-1.8,3.6-4.8,3.6Z"/>
  <path class="st2" d="M106.8,44.2c0-6-4.8-10.8-10.8-10.8h-55c-6,0-10.8,4.8-10.8,10.8v103.5c0,6,4.8,10.8,10.8,10.8h55c6,0,10.8-4.8,10.8-10.8V44.2M33.8,44.2c0-3.9,3.2-7.1,7.1-7.1h55c4,0,7.2,3.2,7.2,7.1v103.5c0,3.9-3.2,7.1-7.2,7.1h-55c-3.9,0-7.1-3.2-7.1-7.1,0,0,0-103.5,0-103.5Z"/>
  <path class="st2" d="M69.4,70.4c-2-1.5-4.7-2.2-8.2-2.2h-9.6v25.4c17.7-.3,22-8.2,22-14.5s-1.4-6.8-4.2-8.7ZM63.9,75.6v14.3c-1.9.8-4.2,1.3-6.8,1.7v-12.6c0-5-2.3-6.3-3.7-7.2h15.2c1.3,1,2.3,2.2,2.8,3.8h-7.6ZM36.8,59.4v73.2h63.4V59.4h-63.4ZM67.6,128.1h-14.2c1.4-.9,3.7-2.2,3.7-7.2v-22.4c2.4-.2,4.7-.6,6.8-1.1v3.4c1,0,1.9,0,2.8-.2.7,1.2,1.2,2.5,1.8,3.7-1.5.1-3,.2-4.6.2v16.3c0,5,2.4,6.3,3.7,7.2ZM70.2,120.7c1.1-1.1,2.7-3.4,2.1-8-.8-6.1-3.5-12.8-7.1-17.1-3.9,1-8.6,1.6-13.5,1.6v16.3c0,5,2.4,6.3,3.7,7.2h-14.2c1.4-.9,3.7-2.2,3.7-7.2v-42c0-5-2.3-6.3-3.7-7.2h20.4c5.4,0,9.6.8,12.8,3,4,2.7,6.2,7.2,6.2,11.7,0,6.3-3.7,11.4-9.7,14.5-.2.1-.4.2-.7.3,5.3,6.1,8,14.7,9.3,20.8.7,3.3,2.1,5,3.3,6.1h-12.5ZM96.8,128.1h-12.5c1.1-1.1,2.7-3.4,2.1-8-.9-6.4-3.9-13.2-7.7-17.5-.4.1-.9.2-1.3.4-.5-1.3-1.2-2.6-1.9-3.9,8-2.7,10.3-8,10.3-12.6s-1.3-6.5-3.8-8.5c-.1-1.9-.7-3.9-1.5-5.7,2.4.5,4.4,1.3,6,2.4,4,2.7,6.2,7.3,6.2,11.7,0,6.1-3.5,11.1-9.3,14.2,5.9,6.5,8.6,15.3,10,21.4.7,3.3,2.2,5,3.3,6.1h0Z"/>
  <path class="st2" d="M46.7,140.3h-2.4v2.9h2.4c1.3,0,2.2-.4,2.2-1.5s-.8-1.4-2.2-1.4ZM58.5,140.2c-1,0-1.7.3-2.2.8-.6.6-.9,1.5-.9,2.8s.3,2.2.9,2.7c.5.5,1.3.9,2.2.9s1.6-.4,2.2-.9c.6-.5.9-1.5.9-2.7s-.3-2.2-.9-2.8c-.5-.5-1.3-.8-2.2-.8ZM36.8,135.6v12.2c0,2.3,1.9,4.2,4.2,4.2h55c2.4,0,4.2-1.9,4.2-4.2v-12.2h-63.4ZM49.2,148.9c-.7-1-1.1-2.2-1.6-3.1-.4-.6-.8-1-1.7-1h-1.6v1.9c0,.8.3,1.9.8,2.3h-3.8c.5-.4.8-1.5.8-2.3v-5.8c0-1-.3-2-.8-2.3h5.3c1.3,0,2.2,0,2.9.2,1.1.4,1.7,1.5,1.7,2.8,0,1.3-.8,2.3-2.4,2.6.7.3,1.2,1.1,1.6,2.1h0c.5,1,.9,1.9,1.9,2.7h-3.1ZM62,148c-.9.8-2.1,1.2-3.6,1.2s-2.6-.4-3.5-1.2c-1.1-.9-1.9-2.3-1.9-4.2s.8-3.3,1.9-4.3c.9-.7,2.1-1.1,3.5-1.1s2.7.4,3.6,1.1c1.1,1,1.9,2.4,1.9,4.3s-.8,3.3-1.9,4.2ZM73.8,140.7l-3.1,4.3v1.7c0,.8.3,1.9.8,2.2h-3.8c.5-.3.8-1.4.8-2.2v-1.7l-3.4-4.8c-.5-.8-.9-1.3-1.6-1.6h4.2c-.2.1-.3.3-.4.5,0,.3.2.7.4,1l2.1,3,2.1-3c.2-.4.4-.7.4-1,0-.2,0-.4-.3-.6h0,0s0,0,0,0h3.7c-.7.4-1.4,1.4-1.9,2.1ZM84.3,148.6c-.5.2-1.5.5-3.1.5-3.4,0-5.8-2-5.8-5.4s.7-3.2,1.8-4.1c1-.8,2.3-1.3,3.9-1.3s2.5.3,3.1.6v2.2c-.7-.7-1.6-1.1-3.1-1.1s-3.3,1.6-3.3,3.7,1.2,3.6,3.3,3.6,2.9-.4,3.5-1.1l-.4,2.4ZM94.8,149h-8.3c.5-.4.8-1.4.8-2.3v-5.8c0-.9-.3-1.9-.8-2.3h8.3v2.3c-.5-.5-1.6-.6-3-.6h-2.4v2.6h4.2l-.2,1.6h-4v2.8h2.6c1.3,0,2.5,0,3.1-.8l-.4,2.5Z"/>
  <rect class="st1" x="30.1" y="33.4" width="537.1" height="125.2"/>
</svg>