<?xml version="1.0" encoding="UTF-8"?>
<svg id="Layer_1" xmlns="http://www.w3.org/2000/svg" version="1.1" viewBox="0 0 220.7 278">
  <!-- Generator: Adobe Illustrator 29.0.1, SVG Export Plug-In . SVG Version: 2.1.0 Build 192)  -->
  <defs>
    <style>
      .st0 {
        fill: #fff;
      }
    </style>
  </defs>
  <path class="st0" d="M45.8,42.7c0-7.3,6-13.2,13.2-13.2h102.3c7.4,0,13.4,6,13.4,13.2v192.6c0,7.3-6,13.2-13.4,13.2H59c-7.3,0-13.2-6-13.2-13.2V42.7"/>
  <path class="st0" d="M93.2,43.1c-1.9,0-3.3.7-4.3,1.7s-1.9,3-1.9,5.4.6,4.3,1.9,5.4c.9.9,2.4,1.7,4.3,1.7s3.3-.7,4.3-1.7c1.3-1.1,1.9-3,1.9-5.4s-.7-4.1-1.9-5.4c-.9-.9-2.4-1.7-4.3-1.7ZM70.2,43.3h-4.7v5.8h4.7c2.6,0,4.3-.7,4.3-2.8s-1.7-3-4.3-3ZM161.5,35.1H59.2c-4.3,0-7.8,3.5-7.8,7.8v22.7h118v-22.7c0-4.3-3.5-7.8-7.8-7.8ZM75.2,60.4c-1.3-1.9-2.2-4.5-3.3-6.1-.7-1.3-1.5-1.9-3.2-1.9h-3.2v3.5c0,1.7.6,3.7,1.5,4.5h-7.4c.9-.6,1.5-2.6,1.5-4.5v-11.3c0-1.9-.6-3.9-1.5-4.5h10.4c2.6,0,4.3,0,5.6.6,2,.7,3.3,2.8,3.3,5.4s-1.5,4.5-4.7,5.2c1.5.7,2.2,2,3.3,4.1h0c.9,1.9,1.9,3.9,3.5,5,0,0-6,0-6,0ZM100.1,58.5c-1.9,1.5-4.1,2.4-7.1,2.4s-5.2-.7-7.1-2.4c-2-1.9-3.5-4.7-3.5-8.4s1.5-6.5,3.5-8.4c1.9-1.5,4.1-2.2,7.1-2.2s5.2.7,7.1,2.2c2,1.9,3.5,4.5,3.5,8.4s-1.5,6.5-3.5,8.4ZM122.4,55.2l-.7,5.2h-15.3c1.1-.7,1.7-2.6,1.7-4.5v-11.3c0-1.7-.6-3.9-1.7-4.5h7.3c-.9.7-1.5,2.8-1.5,4.5v12.5h3.9c2.6,0,5-.4,6.1-1.9h.2ZM140.9,55.2l-.7,5.2h-15.1c.9-.7,1.5-2.6,1.5-4.5v-11.3c0-1.7-.6-3.9-1.5-4.5h7.3c-.9.7-1.5,2.8-1.5,4.5v12.5h4.1c2.6,0,5-.4,6.1-1.9h-.2ZM152,60.8c-2.4,0-5.6-.4-7.6-1.5v-4.8c.4.7,1.5,1.5,2.2,1.9,1.9,1.1,3.5,1.3,5.4,1.3,2.8,0,4.5-1.3,4.5-3s-2.2-2.4-5.4-3c-4.1-.6-6.5-2.4-6.5-5.8s3.3-6,7.8-6,5.2.7,6.7,1.3v4.5c-.4-.7-1.5-1.3-2.4-1.9-1.3-.4-2.8-.7-4.1-.7-2.2,0-3.5.9-3.5,2,0,1.9,1.9,2,5.8,3,3.9.7,6.3,2.4,6.1,6,0,4.1-3.3,6.7-8.9,6.7Z"/>
  <path class="st0" d="M181.6,42.7c0-11.2-8.9-20.1-20.1-20.1H59.2c-11.2,0-20.1,8.9-20.1,20.1v192.6c0,11.2,8.9,20.1,20.1,20.1h102.3c11.2,0,20.1-8.9,20.1-20.1V42.7M45.8,42.7c0-7.3,6-13.2,13.2-13.2h102.3c7.4,0,13.4,6,13.4,13.2v192.6c0,7.3-6,13.2-13.4,13.2H59c-7.3,0-13.2-6-13.2-13.2,0,0,0-192.6,0-192.6Z"/>
  <path class="st0" d="M112,91.5c-3.7-2.8-8.7-4.1-15.3-4.1h-17.9v47.3c32.9-.6,40.9-15.3,40.9-27s-2.6-12.7-7.8-16.2ZM101.8,101.1v26.6c-3.5,1.5-7.8,2.4-12.7,3.2v-23.4c0-9.3-4.3-11.7-6.9-13.4h28.3c2.4,1.9,4.3,4.1,5.2,7.1h-14.1.2ZM51.4,71v136.2h118V71s-118,0-118,0ZM108.7,198.8h-26.4c2.6-1.7,6.9-4.1,6.9-13.4v-41.7c4.5-.4,8.7-1.1,12.7-2v6.3c1.9,0,3.5,0,5.2-.4,1.3,2.2,2.2,4.7,3.3,6.9-2.8.2-5.6.4-8.6.4v30.3c0,9.3,4.5,11.7,6.9,13.4v.2ZM113.5,185c2-2,5-6.3,3.9-14.9-1.5-11.3-6.5-23.8-13.2-31.8-7.3,1.9-16,3-25.1,3v30.3c0,9.3,4.5,11.7,6.9,13.4h-26.4c2.6-1.7,6.9-4.1,6.9-13.4v-78.1c0-9.3-4.3-11.7-6.9-13.4h38c10,0,17.9,1.5,23.8,5.6,7.4,5,11.5,13.4,11.5,21.8s-6.9,21.2-18,27c-.4.2-.7.4-1.3.6,9.9,11.3,14.9,27.3,17.3,38.7,1.3,6.1,3.9,9.3,6.1,11.3h-23.4ZM163,198.8h-23.3c2-2,5-6.3,3.9-14.9-1.7-11.9-7.3-24.6-14.3-32.6-.7.2-1.7.4-2.4.7-.9-2.4-2.2-4.8-3.5-7.3,14.9-5,19.2-14.9,19.2-23.4s-2.4-12.1-7.1-15.8c-.2-3.5-1.3-7.3-2.8-10.6,4.5.9,8.2,2.4,11.2,4.5,7.4,5,11.5,13.6,11.5,21.8s-6.5,20.7-17.3,26.4c11,12.1,16,28.5,18.6,39.8,1.3,6.1,4.1,9.3,6.1,11.3h.2Z"/>
  <path class="st0" d="M69.8,221.5h-4.5v5.4h4.5c2.4,0,4.1-.7,4.1-2.8s-1.5-2.6-4.1-2.6ZM91.7,221.3c-1.9,0-3.2.6-4.1,1.5-1.1,1.1-1.7,2.8-1.7,5.2s.6,4.1,1.7,5c.9.9,2.4,1.7,4.1,1.7s3-.7,4.1-1.7c1.1-.9,1.7-2.8,1.7-5s-.6-4.1-1.7-5.2c-.9-.9-2.4-1.5-4.1-1.5ZM51.4,212.8v22.7c0,4.3,3.5,7.8,7.8,7.8h102.3c4.5,0,7.8-3.5,7.8-7.8v-22.7s-118,0-118,0ZM74.4,237.5c-1.3-1.9-2-4.1-3-5.8-.7-1.1-1.5-1.9-3.2-1.9h-3v3.5c0,1.5.6,3.5,1.5,4.3h-7.1c.9-.7,1.5-2.8,1.5-4.3v-10.8c0-1.9-.6-3.7-1.5-4.3h9.9c2.4,0,4.1,0,5.4.4,2,.7,3.2,2.8,3.2,5.2s-1.5,4.3-4.5,4.8c1.3.6,2.2,2,3,3.9h0c.9,1.9,1.7,3.5,3.5,5h-5.8v-.2ZM98.3,235.8c-1.7,1.5-3.9,2.2-6.7,2.2s-4.8-.7-6.5-2.2c-2-1.7-3.5-4.3-3.5-7.8s1.5-6.1,3.5-8c1.7-1.3,3.9-2,6.5-2s5,.7,6.7,2c2,1.9,3.5,4.5,3.5,8s-1.5,6.1-3.5,7.8ZM120.2,222.3l-5.8,8v3.2c0,1.5.6,3.5,1.5,4.1h-7.1c.9-.6,1.5-2.6,1.5-4.1v-3.2l-6.3-8.9c-.9-1.5-1.7-2.4-3-3h7.8c-.4.2-.6.6-.7.9,0,.6.4,1.3.7,1.9l3.9,5.6,3.9-5.6c.4-.7.7-1.3.7-1.9s0-.7-.6-1.1h6.9c-1.3.7-2.6,2.6-3.5,3.9v.2ZM139.7,237c-.9.4-2.8.9-5.8.9-6.3,0-10.8-3.7-10.8-10s1.3-6,3.3-7.6c1.9-1.5,4.3-2.4,7.3-2.4s4.7.6,5.8,1.1v4.1c-1.3-1.3-3-2-5.8-2s-6.1,3-6.1,6.9,2.2,6.7,6.1,6.7,5.4-.7,6.5-2l-.7,4.5h.2ZM159.3,237.7h-15.4c.9-.7,1.5-2.6,1.5-4.3v-10.8c0-1.7-.6-3.5-1.5-4.3h15.4v4.3c-.9-.9-3-1.1-5.6-1.1h-4.5v4.8h7.8l-.4,3h-7.4v5.2h4.8c2.4,0,4.7,0,5.8-1.5l-.7,4.7h.2Z"/>
</svg>