{
	"asset":{
		"version":"2.0",
		"generator":"Houdini GLTF 2.0 Exporter"
	},
	"accessors":[
		{
			"bufferView":0,
			"componentType":5123,
			"count":1632,
			"type":"SCALAR",
			"min":[0
			],
			"max":[614
			]
		},
		{
			"bufferView":1,
			"componentType":5126,
			"count":615,
			"type":"VEC3",
			"min":[-6.19999981,-0.394999981,-6.1877656
			],
			"max":[6.19999981,0.447713375,6.1877656
			]
		},
		{
			"bufferView":2,
			"componentType":5126,
			"count":615,
			"type":"VEC4",
			"min":[-0.621016502,-0.999947369,-0.999999702,1
			],
			"max":[0.699561894,0.999759078,0.0051016896,1
			]
		},
		{
			"bufferView":3,
			"componentType":5126,
			"count":615,
			"type":"VEC2",
			"min":[0.001953125,-7.06524181
			],
			"max":[8.08244514,0.998046875
			]
		},
		{
			"bufferView":4,
			"componentType":5126,
			"count":615,
			"type":"VEC3",
			"min":[-1,-1,-1
			],
			"max":[1,1,1
			]
		}
	],
	"buffers":[
		{
			"uri":"pathcyl_data.bin",
			"byteLength":32784,
			"name":"main_buffer"
		}
	],
	"bufferViews":[
		{
			"buffer":0,
			"byteLength":3264,
			"target":34963
		},
		{
			"buffer":0,
			"byteOffset":3264,
			"byteLength":7380,
			"target":34962
		},
		{
			"buffer":0,
			"byteOffset":10644,
			"byteLength":9840,
			"target":34962
		},
		{
			"buffer":0,
			"byteOffset":20484,
			"byteLength":4920,
			"target":34962
		},
		{
			"buffer":0,
			"byteOffset":25404,
			"byteLength":7380,
			"target":34962
		}
	],
	"nodes":[
		{
			"children":[1
			],
			"name":"Root"
		},
		{
			"name":"pathcyl",
			"mesh":0
		}
	],
	"meshes":[
		{
			"primitives":[
				{
					"attributes":{
						"POSITION":1,
						"TANGENT":2,
						"NORMAL":4,
						"TEXCOORD_0":3
					},
					"indices":0,
					"material":0
				}
			],
			"name":"OUT_pathcyl"
		}
	],
	"materials":[
		{
			"name":"wood_mtl",
			"pbrMetallicRoughness":{
				"metallicFactor":0,
				"roughnessFactor":0.300000012,
				"baseColorTexture":{
					"index":0
				},
				"metallicRoughnessTexture":{
					"index":1
				}
			}
		}
	],
	"scenes":[
		{
			"nodes":[0
			]
		}
	],
	"textures":[
		{
			"source":0
		},
		{
			"source":1
		}
	],
	"images":[
		{
			"uri":"laminate_floor_02_diff_1k.jpg",
			"mimeType":"image/jpeg"
		},
		{
			"uri":"laminate_floor_02_disp_1k.png",
			"mimeType":"image/png"
		}
	],
	"scene":0
}
