{
	"asset":{
		"version":"2.0",
		"generator":"Houdini GLTF 2.0 Exporter"
	},
	"accessors":[
		{
			"bufferView":0,
			"componentType":5123,
			"count":2928,
			"type":"SCALAR",
			"min":[0
			],
			"max":[937
			]
		},
		{
			"bufferView":1,
			"componentType":5126,
			"count":938,
			"type":"VEC3",
			"min":[-5.22835302,-0.147844002,-4.22268295
			],
			"max":[4.22268295,0.0887336954,4.222682
			]
		},
		{
			"bufferView":2,
			"componentType":5126,
			"count":938,
			"type":"VEC4",
			"min":[-4.30082109e-05,-1,-1,1
			],
			"max":[3.58731704e-05,1,1,1
			]
		},
		{
			"bufferView":3,
			"componentType":5126,
			"count":938,
			"type":"VEC2",
			"min":[0,-7.00238609
			],
			"max":[8.58286953,1
			]
		},
		{
			"bufferView":4,
			"componentType":5126,
			"count":938,
			"type":"VEC3",
			"min":[-1,-1,-1
			],
			"max":[1,1,1
			]
		}
	],
	"buffers":[
		{
			"uri":"path_data.bin",
			"byteLength":50880,
			"name":"main_buffer"
		}
	],
	"bufferViews":[
		{
			"buffer":0,
			"byteLength":5856,
			"target":34963
		},
		{
			"buffer":0,
			"byteOffset":5856,
			"byteLength":11256,
			"target":34962
		},
		{
			"buffer":0,
			"byteOffset":17112,
			"byteLength":15008,
			"target":34962
		},
		{
			"buffer":0,
			"byteOffset":32120,
			"byteLength":7504,
			"target":34962
		},
		{
			"buffer":0,
			"byteOffset":39624,
			"byteLength":11256,
			"target":34962
		}
	],
	"nodes":[
		{
			"children":[1
			],
			"name":"Root"
		},
		{
			"name":"path",
			"mesh":0
		}
	],
	"meshes":[
		{
			"primitives":[
				{
					"attributes":{
						"POSITION":1,
						"TANGENT":2,
						"NORMAL":4,
						"TEXCOORD_0":3
					},
					"indices":0,
					"material":0
				}
			],
			"name":"OUT_path"
		}
	],
	"materials":[
		{
			"name":"path_mtl",
			"pbrMetallicRoughness":{
				"metallicFactor":0,
				"roughnessFactor":0.300000012,
				"baseColorTexture":{
					"index":0
				},
				"metallicRoughnessTexture":{
					"index":1
				}
			}
		}
	],
	"scenes":[
		{
			"nodes":[0
			]
		}
	],
	"textures":[
		{
			"source":0
		},
		{
			"source":1
		}
	],
	"images":[
		{
			"uri":"green_metal_rust_diff_1k.jpg",
			"mimeType":"image/jpeg"
		},
		{
			"uri":"green_metal_rust_rough_1k.jpg",
			"mimeType":"image/jpeg"
		}
	],
	"scene":0
}
