{
	"asset":{
		"version":"2.0",
		"generator":"Houdini GLTF 2.0 Exporter"
	},
	"accessors":[
		{
			"bufferView":0,
			"componentType":5125,
			"count":56943,
			"type":"SCALAR",
			"min":[0
			],
			"max":[16041
			]
		},
		{
			"bufferView":1,
			"componentType":5126,
			"count":16042,
			"type":"VEC3",
			"min":[-5.31033421,-1.49561334,2.66992354
			],
			"max":[-3.641572,-0.0665974021,4.43980408
			]
		},
		{
			"bufferView":2,
			"componentType":5126,
			"count":16042,
			"type":"VEC3",
			"min":[-0.999982476,-0.999990106,-0.999911189
			],
			"max":[0.999995172,0.999877512,0.999952018
			]
		},
		{
			"bufferView":3,
			"componentType":5126,
			"count":16042,
			"type":"VEC4",
			"min":[-0.999993324,-0.999959528,-0.99999243,1
			],
			"max":[0.99990648,0.999982953,0.999633491,1
			]
		},
		{
			"bufferView":4,
			"componentType":5126,
			"count":16042,
			"type":"VEC2",
			"min":[0.000411861605,0.000111997128
			],
			"max":[0.999640822,0.999938726
			]
		}
	],
	"buffers":[
		{
			"uri":"path_cloud_01_data.bin",
			"byteLength":997788,
			"name":"main_buffer"
		}
	],
	"bufferViews":[
		{
			"buffer":0,
			"byteLength":227772,
			"target":34963
		},
		{
			"buffer":0,
			"byteOffset":227772,
			"byteLength":192504,
			"target":34962
		},
		{
			"buffer":0,
			"byteOffset":420276,
			"byteLength":192504,
			"target":34962
		},
		{
			"buffer":0,
			"byteOffset":612780,
			"byteLength":256672,
			"target":34962
		},
		{
			"buffer":0,
			"byteOffset":869452,
			"byteLength":128336,
			"target":34962
		}
	],
	"nodes":[
		{
			"children":[1
			],
			"name":"Root"
		},
		{
			"name":"path_cloud_01",
			"mesh":0
		}
	],
	"meshes":[
		{
			"primitives":[
				{
					"attributes":{
						"POSITION":1,
						"TANGENT":3,
						"TEXCOORD_0":4,
						"NORMAL":2
					},
					"indices":0,
					"material":0
				}
			],
			"name":"OUT_pathcloud_1"
		}
	],
	"materials":[
		{
			"name":"principledshader1",
			"pbrMetallicRoughness":{
				"baseColorTexture":{
					"index":0
				}
			}
		}
	],
	"scenes":[
		{
			"nodes":[0
			]
		}
	],
	"textures":[
		{
			"source":0
		}
	],
	"images":[
		{
			"uri":"object_0__1__0.png",
			"mimeType":"image/png"
		}
	],
	"scene":0
}
