{
	"asset":{
		"version":"2.0",
		"generator":"Houdini GLTF 2.0 Exporter"
	},
	"accessors":[
		{
			"bufferView":0,
			"componentType":5123,
			"count":960,
			"type":"SCALAR",
			"min":[0
			],
			"max":[161
			]
		},
		{
			"bufferView":1,
			"componentType":5126,
			"count":162,
			"type":"VEC3",
			"min":[-4.82302284,0.00792616606,-1.4525131
			],
			"max":[-4.32302284,0.507810354,-0.952513099
			]
		},
		{
			"bufferView":2,
			"componentType":5126,
			"count":162,
			"type":"VEC4",
			"min":[-1,-0.00449974556,-0.885172665,1
			],
			"max":[-0.465262502,0.00449977582,0.759826839,1
			]
		},
		{
			"bufferView":3,
			"componentType":5126,
			"count":162,
			"type":"VEC2",
			"min":[0.00360192428,0.00685119629
			],
			"max":[1,0.993148804
			]
		},
		{
			"bufferView":4,
			"componentType":5126,
			"count":162,
			"type":"VEC3",
			"min":[-1,-0.999840856,-1
			],
			"max":[1,0.999840856,1
			]
		},
		{
			"bufferView":5,
			"componentType":5123,
			"count":960,
			"type":"SCALAR",
			"min":[0
			],
			"max":[161
			]
		},
		{
			"bufferView":6,
			"componentType":5126,
			"count":162,
			"type":"VEC3",
			"min":[-4.82294226,0.00792616606,3.15213108
			],
			"max":[-4.32294226,0.507810354,3.65213108
			]
		},
		{
			"bufferView":7,
			"componentType":5126,
			"count":162,
			"type":"VEC4",
			"min":[-1,-0.00449931016,-0.885172784,1
			],
			"max":[-0.465262443,0.0044993707,0.759826839,1
			]
		},
		{
			"bufferView":8,
			"componentType":5126,
			"count":162,
			"type":"VEC2",
			"min":[0.00360192428,0.00685119629
			],
			"max":[1,0.993148804
			]
		},
		{
			"bufferView":9,
			"componentType":5126,
			"count":162,
			"type":"VEC3",
			"min":[-1,-0.999840856,-1
			],
			"max":[1,0.999840856,1
			]
		}
	],
	"buffers":[
		{
			"uri":"spherepos_data.bin",
			"byteLength":19392,
			"name":"main_buffer"
		}
	],
	"bufferViews":[
		{
			"buffer":0,
			"byteLength":1920,
			"target":34963
		},
		{
			"buffer":0,
			"byteOffset":1920,
			"byteLength":1944,
			"target":34962
		},
		{
			"buffer":0,
			"byteOffset":3864,
			"byteLength":2592,
			"target":34962
		},
		{
			"buffer":0,
			"byteOffset":6456,
			"byteLength":1296,
			"target":34962
		},
		{
			"buffer":0,
			"byteOffset":7752,
			"byteLength":1944,
			"target":34962
		},
		{
			"buffer":0,
			"byteOffset":9696,
			"byteLength":1920,
			"target":34963
		},
		{
			"buffer":0,
			"byteOffset":11616,
			"byteLength":1944,
			"target":34962
		},
		{
			"buffer":0,
			"byteOffset":13560,
			"byteLength":2592,
			"target":34962
		},
		{
			"buffer":0,
			"byteOffset":16152,
			"byteLength":1296,
			"target":34962
		},
		{
			"buffer":0,
			"byteOffset":17448,
			"byteLength":1944,
			"target":34962
		}
	],
	"nodes":[
		{
			"children":[1,2
			],
			"name":"Root"
		},
		{
			"name":"spherepos1",
			"mesh":0
		},
		{
			"name":"spherepos2",
			"mesh":1
		}
	],
	"meshes":[
		{
			"primitives":[
				{
					"attributes":{
						"POSITION":1,
						"TANGENT":2,
						"NORMAL":4,
						"TEXCOORD_0":3
					},
					"indices":0
				}
			],
			"name":"OUT_sphere"
		},
		{
			"primitives":[
				{
					"attributes":{
						"POSITION":6,
						"TANGENT":7,
						"NORMAL":9,
						"TEXCOORD_0":8
					},
					"indices":5
				}
			],
			"name":"OUT_sphere"
		}
	],
	"scenes":[
		{
			"nodes":[0
			]
		}
	],
	"scene":0
}
