{
	"asset":{
		"version":"2.0",
		"generator":"Houdini GLTF 2.0 Exporter"
	},
	"accessors":[
		{
			"bufferView":0,
			"componentType":5123,
			"count":132,
			"type":"SCALAR",
			"min":[0
			],
			"max":[47
			]
		},
		{
			"bufferView":1,
			"componentType":5126,
			"count":48,
			"type":"VEC3",
			"min":[-2.91817713,-0.546989977,-4.05297852
			],
			"max":[-1.91817713,-0.206989959,-3.05297875
			]
		},
		{
			"bufferView":2,
			"componentType":5126,
			"count":48,
			"type":"VEC4",
			"min":[-7.13418604e+23,-1.26018994e+28,-1.26018994e+28,1
			],
			"max":[1.40129846e-45,0,1.40129846e-45,1
			]
		},
		{
			"bufferView":3,
			"componentType":5126,
			"count":48,
			"type":"VEC2",
			"min":[0,0
			],
			"max":[1,1
			]
		},
		{
			"bufferView":4,
			"componentType":5126,
			"count":48,
			"type":"VEC3",
			"min":[-1,-1,-1
			],
			"max":[1,1,1
			]
		}
	],
	"buffers":[
		{
			"uri":"trigger_data.bin",
			"byteLength":2568,
			"name":"main_buffer"
		}
	],
	"bufferViews":[
		{
			"buffer":0,
			"byteLength":264,
			"target":34963
		},
		{
			"buffer":0,
			"byteOffset":264,
			"byteLength":576,
			"target":34962
		},
		{
			"buffer":0,
			"byteOffset":840,
			"byteLength":768,
			"target":34962
		},
		{
			"buffer":0,
			"byteOffset":1608,
			"byteLength":384,
			"target":34962
		},
		{
			"buffer":0,
			"byteOffset":1992,
			"byteLength":576,
			"target":34962
		}
	],
	"nodes":[
		{
			"children":[1
			],
			"name":"Root"
		},
		{
			"name":"trigger",
			"mesh":0
		}
	],
	"meshes":[
		{
			"primitives":[
				{
					"attributes":{
						"POSITION":1,
						"TANGENT":2,
						"NORMAL":4,
						"TEXCOORD_0":3
					},
					"indices":0
				}
			],
			"name":"OUT_trigger"
		}
	],
	"scenes":[
		{
			"nodes":[0
			]
		}
	],
	"scene":0
}
