<?xml version="1.0" encoding="UTF-8"?>
<svg id="Layer_1" xmlns="http://www.w3.org/2000/svg" version="1.1" viewBox="0 0 1000 1000">
  <!-- Generator: Adobe Illustrator 29.0.1, SVG Export Plug-In . SVG Version: 2.1.0 Build 192)  -->
  <defs>
    <style>
      .st0 {
        fill: #466e74;
      }

      .st1 {
        fill: #559196;
      }

      .st2 {
        fill: #9ed8e2;
      }
    </style>
  </defs>
  <path class="st2" d="M500.92,28.94v39.75s-16.19,1.46-16.19,1.46c-3.91.1-7.87-.18-11.78,0-227.24,10.31-401.19,204.17-403.35,428.37,0,.49,0,.98,0,1.47l-39.75,1.48c.04-7.35-.03-14.74,0-22.09C31.09,230.51,257.46,28.67,500.92,28.94Z"/>
  <path class="st2" d="M971.98,500c.29,260.94-210.17,471.06-471.06,471.06v-39.75c2.94-.02,5.9.09,8.83,0,223.22-6.6,410.52-179.45,422.48-404.82.08-1.46-.06-2.95,0-4.42.04-.98-.03-1.96,0-2.94.2-5.85,0-11.81,0-17.66,12.6-3.28,26.74-.63,39.75-1.47Z"/>
  <path class="st1" d="M971.98,500c-13.01.84-27.15-1.81-39.75,1.47-.22-249.66-199.11-437.98-447.51-431.31l16.2-1.46V28.94c260.82.29,470.76,210.52,471.05,471.06Z"/>
  <path class="st1" d="M29.86,479.39c-.04,7.35.03,14.74,0,22.09l39.75-1.48c-1.02,237.86,192.86,432.95,431.31,431.31v39.75c-249.53,0-453.55-192.53-471.12-440.82-.54-7.64.44-15.93.12-23.67-.34-8.3-4.08-18.86-.06-27.17Z"/>
  <path class="st0" d="M484.73,70.16c248.39-6.66,447.29,181.65,447.51,431.31,0,5.86.2,11.82,0,17.66l-2.95.75.02,2.19h2.93c-.06,1.47.08,2.96,0,4.42-4.23-.43-4.34.26-5.86,3.72-3.88,8.83-10.92,24.86-11.78,33.85-2.01,21.02.11,27.21-7.3,48.64-23.88,69.06-49.21,129.53-103.83,181.75-38.26,36.58-82.93,69.54-131.78,90.5-18.63,7.99-53.01,22.68-72.06,26.57-25.76,5.25-61.12,5.75-85.87,15.78-2.28.92-4.76.36-4,4.02-2.94.09-5.89-.02-8.83,0-238.45,1.63-432.34-193.45-431.31-431.31,0-.49,0-.98,0-1.47,3.46.33,4.11.72,5.18-2.86,2.37-7.92,4.12-23.86,7.71-30.62,1.57-2.96,2.9-3.69,6.24-3.33-28.34,313.46,292.48,544.58,580.99,415.38,290.35-130.03,331.17-525.4,72.45-711.84C516.61,2.72,194.17,107.68,107.88,370.46c-4.32.85-2.99-2.32-2.98-5.12.03-13.93,6.71-19.18,11.08-30.2,15.04-37.91,26.63-57.6,52.21-89.11,6.48-7.98,9.71-17.29,16.28-24.94,7.17-8.34,16.8-12.78,24.24-19.93,4.85-4.66,9.74-13.33,14.7-17.69,6.48-5.69,17.4-9.96,25.01-16.2,48.63-39.87,78.82-51.57,138.88-68.68,6.63-1.89,16.07-7.51,21.99-8.92,15.4-3.67,33.24.93,48.28-6.19,4.21-1.99,14.55-8.57,15.38-13.33,3.9-.18,7.87.1,11.78,0Z"/>
  <path class="st1" d="M472.96,70.16c-.82,4.76-11.17,11.34-15.38,13.33-15.04,7.12-32.88,2.51-48.28,6.19-5.92,1.41-15.36,7.03-21.99,8.92-60.06,17.1-90.25,28.8-138.88,68.68-7.61,6.24-18.54,10.51-25.01,16.2-4.96,4.35-9.85,13.03-14.7,17.69-7.43,7.15-17.07,11.59-24.24,19.93-6.58,7.65-9.8,16.95-16.28,24.94-25.58,31.51-37.17,51.2-52.21,89.11-4.37,11.02-11.05,16.27-11.08,30.2,0,2.81-1.34,5.97,2.98,5.12-9.23,28.1-16.47,61.78-19.14,91.27-3.35-.36-4.67.37-6.24,3.33-3.59,6.76-5.34,22.69-7.71,30.62-1.07,3.58-1.72,3.18-5.18,2.86,2.16-224.2,176.1-418.06,403.35-428.37Z"/>
  <path class="st1" d="M932.24,526.5c-11.97,225.36-199.27,398.22-422.48,404.82-.76-3.66,1.72-3.1,4-4.02,24.75-10.03,60.11-10.52,85.87-15.78,19.05-3.89,53.43-18.57,72.06-26.57,48.86-20.96,93.52-53.92,131.78-90.5,54.62-52.22,79.95-112.68,103.83-181.75,7.41-21.43,5.29-27.61,7.3-48.64.86-8.99,7.9-25.02,11.78-33.85,1.52-3.46,1.63-4.15,5.86-3.72Z"/>
  <path class="st1" d="M932.24,519.14c-.03.98.04,1.97,0,2.94h-2.93s-.02-2.19-.02-2.19l2.95-.75Z"/>
  <path class="st2" d="M480.32,99.6c6.57-.07,13.18.07,19.76-.03l.85,7.39c-184.6,1.08-345.34,128.86-384.96,309.12-53.91,245.26,134.07,475.7,383.49,476.96l1.47,8.83C198.29,903.4,1.94,578.53,145.39,310.07c63.21-118.3,198.76-209.08,334.93-210.47Z"/>
  <path class="st1" d="M500.92,901.87l-1.47-8.83c241.19,1.22,428.73-214.24,391.14-453.7-29.71-189.29-197.19-333.5-389.67-332.38l-.85-7.39c-6.58.1-13.19-.04-19.76.03,9.42-2.32,21.85-1.97,31.71-1.53,186.13,8.23,343.6,134.67,382.69,318.01,53.76,252.16-137.83,484.5-393.79,485.8Z"/>
  <path class="st2" d="M867.47,500c2.25,199.11-167.56,368.66-366.54,366.54l-1.47-8.83c197.42.45,358.08-158.99,359.18-356.24l8.83-1.47Z"/>
  <path class="st2" d="M500.92,134.93v8.83c-198.38.73-357.71,158.61-357.71,357.71l-7.39-.85c.1-6.58-.04-13.19.03-19.76,1.96-192.24,177.06-346.78,365.07-345.93Z"/>
  <path class="st1" d="M135.85,480.86c-.07,6.57.07,13.18-.03,19.76l7.39.85c0,195.89,160.43,355.8,356.24,356.24l1.47,8.83c-209.15-2.22-368.7-169.63-366.57-377.61.03-2.49-.94-6.54,1.5-8.08Z"/>
  <path class="st1" d="M867.47,500l-8.83,1.47c1.11-198.48-159.52-358.44-357.71-357.71v-8.83c202.95.91,364.25,162.26,366.54,365.07Z"/>
  <path class="st1" d="M172.65,452.89c-.67-.31-2.68.9-3.02-.87l.31-7c1.24-4.06,5.33-.82,5.59-1,1.75-1.16,8.05-34.52,9.98-40.84,47.45-156.01,205.64-255.11,367.41-228.4,9.27-15.45,13.49,1.08,16.8,2.85,7.72,4.12,32.53,8.29,43.44,12.13,136.11,47.89,225.92,185.8,217.49,330.09-.63,10.86-6.71,34.45-5.89,42.69.38,3.8,5.33,3.95,4.21,9.95-1.15,6.16-6.55,4.55-8.34,7.99-3.47,6.65-7.47,26.9-10.94,36.17-42.97,114.7-151.57,199.92-274.18,211.6-31.03,2.96-61.75.97-92.58-3.04l-2.25,5.33c-9.57,2.69-12.56-.05-14.8-8.94-164.2-37.25-276.3-199.79-251.76-367.25,1.62.23,9.77.24,10.19-.12,1.62-2.76-.08-6.69.11-8.72,13.28,2.13-2,12.48-2.64,14.25-2.15,5.97-3.36,33.21-3.33,41,.42,124.9,76.24,242.37,190.02,292.85,18.59,8.25,43.1,17.56,63.25,19.92l-1.1,12.58,8.4,2.07,1.55-14.66c-2.42-.18-4.95.24-7.37,0-1.39-5.09,7.98-2.99,8.94-2.28,1.5,1.1.51,4.42,2.39,5.25,4.29,1.91,24.6,3.83,30.63,4.37,138.49,12.52,271.97-70.93,323.79-198.76,3.08-7.59,15.21-40.2,14.08-46.08-.11-.59-5.67-2.24-2.8-10.39.93-2.65,4.05-1.75,5.31-2.73,2.02-1.57,5.82-29.48,6.26-34.25,13.21-140.68-72.11-277.67-203.15-328.23-10.87-4.19-44.52-16.03-54.44-15.48l-.21-10.09c-7.11-4.28-9.22.39-10.09,7.14-34.33-7.59-93.53-2.93-128.09,5.13-115.76,27.01-229.73,136.65-241.4,258.36-2.15-.34-8.88-.39-10.4.65l-1.37,6.72ZM823.21,576.49c4.29-9.24-.81-13.01-9.58-8.88l.03,6.07,9.55,2.81Z"/>
  <path class="st2" d="M184.43,445.53c-.19,2.03,1.51,5.95-.11,8.72-.42.36-8.57.35-10.19.12-.35-.05-.91-1.21-1.47-1.47l1.37-6.72c1.52-1.03,8.25-.99,10.4-.65Z"/>
  <path class="st2" d="M433.21,813.55c2.41.24,4.94-.18,7.37,0l-1.55,14.66-8.4-2.07,1.1-12.58c.48.06.99-.05,1.47,0Z"/>
  <path class="st2" d="M553.92,182.03c.87-6.75,2.98-11.42,10.09-7.14l.21,10.09c-.31.02-1.01,1.41-1.47,1.47-1.02.14-5.64.16-5.89,0-.28-.19.09-3.75-2.94-4.42Z"/>
  <path class="st2" d="M823.21,576.49l-9.55-2.81-.03-6.07c8.77-4.13,13.87-.36,9.58,8.88Z"/>
  <path class="st0" d="M485.9,192.77c242.57-12.18,403.65,249.82,281.72,461.31-111.28,193.02-388.09,206.86-517.52,25.35-141.71-198.74-6.64-474.48,235.8-486.66ZM474.13,208.97c-183.89,12.91-305.09,200.01-253.63,374.94,59.04,200.69,312.38,277.13,471.02,138.34,214.41-187.59,68.9-533.37-217.39-513.27Z"/>
  <path class="st1" d="M562.75,186.45c-1.25,2.08-5.17,2.54-5.89,0,.24.16,4.86.14,5.89,0Z"/>
  <path class="st2" d="M474.13,208.97c286.29-20.1,431.8,325.69,217.39,513.27-158.64,138.79-411.98,62.35-471.02-138.34-51.46-174.93,69.74-362.03,253.63-374.94ZM499.45,226.2v-11.78c-126.49-2.64-240.7,87.05-274.54,207.57-7.29,25.97-9.93,51.25-11.05,78.02h13.26c1.15,153.11,120.67,272.49,273.8,273.8v13.26c152.42.22,280.68-121.87,285.59-274.53.37-11.41,4.68-11.59-11.78-11.06-.58-153.16-122.42-274.38-275.28-275.28Z"/>
  <path class="st1" d="M227.12,500h-13.26c1.12-26.76,3.76-52.04,11.05-78.02,33.83-120.52,148.05-210.21,274.54-207.57v11.78c-149.03-.87-273.46,125.33-272.34,273.8Z"/>
  <path class="st1" d="M774.73,501.47c16.46-.53,12.15-.35,11.78,11.06-4.9,152.66-133.17,274.75-285.59,274.53v-13.26c150.1,1.28,274.38-122.2,273.81-272.33Z"/>
  <path class="st1" d="M665.8,666.34l-16.19-14.72c84.96-83.03,83.81-221.17-1.47-303.24l17.66-13.25c92.07,93.71,94.11,236.87,0,331.21Z"/>
  <path class="st1" d="M500.92,265.94v23.55c-117.14-.46-211.23,93.03-211.98,210.5h-22.08c.02-129.88,104.49-233.72,234.06-234.06Z"/>
  <path class="st2" d="M288.95,500c-.36,55.71,23.69,112.82,63.3,151.62-3.78,6.55-12.49,10.27-14.72,17.66-45.56-43.42-70.67-106.38-70.66-169.29h22.08Z"/>
  <path class="st2" d="M665.8,335.13l-17.66,13.25c-41.86-40.29-88.93-58.65-147.21-58.88v-23.55c65.39-.17,119.9,23.42,164.87,69.19Z"/>
  <path class="st2" d="M665.8,666.34c-43.81,43.92-102.53,68.13-164.87,67.71v-22.08c53.76.4,110.35-22.9,148.68-60.35l16.19,14.72Z"/>
  <path class="st1" d="M500.92,711.98v22.08c-60.48-.4-119.65-23.08-163.4-64.77,2.23-7.4,10.94-11.12,14.72-17.66,39.36,38.56,93.53,59.95,148.68,60.35Z"/>
  <path class="st0" d="M500.92,289.5c58.28.23,105.35,18.6,147.21,58.88,85.28,82.08,86.43,220.21,1.47,303.24-38.33,37.46-94.92,60.75-148.68,60.35-55.15-.41-109.32-21.79-148.68-60.35-39.61-38.8-63.65-95.91-63.3-151.62.75-117.48,94.84-210.96,211.98-210.5ZM348.69,634.57c105.05,119.32,303.7,74.76,347.28-77.16,44.35-154.64-97.88-295.82-252.11-252.11-142.32,40.34-193.15,217.99-95.17,329.27Z"/>
  <path class="st2" d="M677.57,500c.61,98.07-78.68,177.26-176.65,176.65-1.73-2.37-1.73-4.99,0-7.36,94.34-.34,168.07-75.5,169.29-169.29h7.36Z"/>
  <path class="st1" d="M331.64,501.47c.65,92.63,76.63,168.15,169.29,167.82-1.73,2.37-1.73,4.99,0,7.36-99.15-.62-175.73-77.46-176.65-176.65l7.36,1.47Z"/>
  <path class="st2" d="M627.52,377.82l-4.42,4.42c-30.58-31.88-78.02-51.52-122.18-51.52l-1.47-7.36c51.29-.88,93.1,17.98,128.07,54.47Z"/>
  <path class="st1" d="M499.45,323.35l1.47,7.36c-44.82,0-93.13,20.1-123.65,52.99.11-2.98-1.5-4.54-4.42-4.42,34.75-36.56,75.5-55.06,126.6-55.94Z"/>
  <path class="st2" d="M377.27,383.71c-28.11,30.29-45.92,76.3-45.63,117.76l-7.36-1.47c-.43-46.37,17.18-87.68,48.58-120.71,2.92-.12,4.53,1.44,4.42,4.42Z"/>
  <path class="st1" d="M677.57,500h-7.36c.54-42.01-18.14-87.57-47.11-117.76l4.42-4.42c32.83,34.25,49.75,73.98,50.05,122.18Z"/>
</svg>