<?xml version="1.0" encoding="UTF-8"?>
<svg id="Layer_1" xmlns="http://www.w3.org/2000/svg" version="1.1" viewBox="0 0 800 800">
  <!-- Generator: Adobe Illustrator 29.0.1, SVG Export Plug-In . SVG Version: 2.1.0 Build 192)  -->
  <defs>
    <style>
      .st0 {
        fill: #d1d3d4;
      }
    </style>
  </defs>
  <path class="st0" d="M692.2,0H107.8C48.3,0,0,48.3,0,107.8v584.4c0,59.5,48.3,107.8,107.8,107.8h288.2l.5-285.9h-74.3c-9.7,0-17.5-7.8-17.5-17.5l-.4-92.1c0-9.7,7.8-17.6,17.5-17.6h74.1v-89c0-103.3,63.1-159.6,155.3-159.6h75.6c9.7,0,17.5,7.8,17.5,17.5v77.7c0,9.7-7.8,17.5-17.5,17.5h-46.4c-50.1,0-59.8,23.8-59.8,58.8v77.1h110.2c10.5,0,18.6,9.2,17.4,19.6l-10.9,92.1c-1,8.8-8.5,15.5-17.4,15.5h-98.7l-.5,285.9h171.5c59.5,0,107.8-48.3,107.8-107.8V107.8c0-59.5-48.3-107.8-107.8-107.8Z"/>
</svg>