<?xml version="1.0" encoding="UTF-8"?>
<svg id="Layer_1" xmlns="http://www.w3.org/2000/svg" version="1.1" viewBox="0 0 800 800">
  <!-- Generator: Adobe Illustrator 29.0.1, SVG Export Plug-In . SVG Version: 2.1.0 Build 192)  -->
  <defs>
    <style>
      .st0 {
        fill: #d1d3d4;
        fill-rule: evenodd;
      }
    </style>
  </defs>
  <path class="st0" d="M400,325c-41.4,0-75,33.6-75,75s33.6,75,75,75,75-33.6,75-75-33.6-75-75-75ZM589.1,254.6c-9.6-18.8-24.9-34.1-43.7-43.7-7.9-4-19.1-7.2-41-9-22.5-1.9-51.6-1.9-94.4-1.9h-20c-42.8,0-71.9,0-94.4,1.9-22,1.8-33.2,5-41,9-18.8,9.6-34.1,24.9-43.7,43.7-4,7.9-7.2,19.1-9,41-1.9,22.5-1.9,51.6-1.9,94.4v20c0,42.8,0,71.9,1.9,94.4,1.8,22,5,33.2,9,41,9.6,18.8,24.9,34.1,43.7,43.7,7.9,4,19.1,7.2,41,9,22.5,1.9,51.6,1.9,94.4,1.9h20c42.8,0,71.9-.1,94.4-1.9,22-1.8,33.2-5,41-9,18.8-9.6,34.1-24.9,43.7-43.7,4-7.9,7.2-19.1,9-41,1.9-22.5,1.9-51.6,1.9-94.4v-20c0-42.8-.1-71.9-1.9-94.4-1.8-22-5-33.2-9-41ZM400,525c-69,0-125-56-125-125s56-125,125-125,125,56,125,125-56,125-125,125ZM537.5,300c-20.7,0-37.5-16.8-37.5-37.5s16.8-37.5,37.5-37.5,37.5,16.8,37.5,37.5-16.8,37.5-37.5,37.5ZM600,50H200c-82.8,0-150,67.2-150,150v400c0,82.8,67.2,150,150,150h400c82.8,0,150-67.2,150-150V200c0-82.8-67.2-150-150-150ZM650,410c0,84,0,126-16.3,158.1-14.4,28.2-37.3,51.2-65.6,65.6-32.1,16.3-74.1,16.3-158.1,16.3h-20c-84,0-126,0-158.1-16.3-28.2-14.4-51.2-37.3-65.6-65.6-16.3-32.1-16.3-74.1-16.3-158.1v-20h0c0-84,0-126,16.3-158.1,14.4-28.2,37.3-51.2,65.6-65.6,32.1-16.3,74.1-16.3,158.1-16.3h20c84,0,126,0,158.1,16.3,28.2,14.4,51.2,37.3,65.6,65.6,16.3,32.1,16.3,74.1,16.3,158.1v20Z"/>
</svg>