<?xml version="1.0" encoding="UTF-8"?>
<svg id="Layer_1" xmlns="http://www.w3.org/2000/svg" version="1.1" viewBox="0 0 800 800">
  <!-- Generator: Adobe Illustrator 29.0.1, SVG Export Plug-In . SVG Version: 2.1.0 Build 192)  -->
  <defs>
    <style>
      .st0 {
        fill: #d1d3d4;
        fill-rule: evenodd;
      }
    </style>
  </defs>
  <g id="Icons">
    <g id="Color-">
      <path id="Vimeo" class="st0" d="M799.6,216.3c-3.5,77-58,182.3-163,315.9-108.8,139.7-200.9,209.5-276.2,209.5s-86-42.5-118.3-127.7c-21.6-78.2-43-156.4-64.6-234.3-24-85.3-49.7-127.9-77.1-127.9s-26.8,12.4-62.7,37.3L0,241.2c39.4-34.2,78.3-68.6,116.6-102.9,52.5-45,92-68.6,118.3-71.1,62.1-6,100.4,36.1,114.8,126,15.4,97.1,26.2,157.4,32.2,181.1,18,80.5,37.6,120.6,59.2,120.6s41.8-26,75.3-78c33.5-52.1,51.3-91.7,53.8-119,4.8-45-13.1-67.3-53.8-67.3s-38.9,4-59.2,12.4c39.5-126.6,114.8-188.2,226-184.6,82.4,2.3,121.3,55,116.4,157.8"/>
    </g>
  </g>
</svg>