{
	"asset":{
		"version":"2.0",
		"generator":"Houdini GLTF 2.0 Exporter"
	},
	"accessors":[
		{
			"bufferView":0,
			"componentType":5123,
			"count":8316,
			"type":"SCALAR",
			"min":[0
			],
			"max":[3299
			]
		},
		{
			"bufferView":1,
			"componentType":5126,
			"count":3300,
			"type":"VEC3",
			"min":[-0.141185522,-0.156096533,-0.386999726
			],
			"max":[0.865098596,2.26677036,0.396462679
			]
		},
		{
			"bufferView":2,
			"componentType":5126,
			"count":3300,
			"type":"VEC4",
			"min":[-0.764789283,-0.983622491,-0.244508848,1
			],
			"max":[0.776560843,0.980859756,0.99806875,1
			]
		},
		{
			"bufferView":3,
			"componentType":5126,
			"count":3300,
			"type":"VEC2",
			"min":[0.001953125,0.00410759449
			],
			"max":[0.899131238,0.998046875
			]
		},
		{
			"bufferView":4,
			"componentType":5126,
			"count":3300,
			"type":"VEC3",
			"min":[-0.9993397,-0.995050371,-0.996851802
			],
			"max":[0.9993397,0.995050371,0.996851861
			]
		}
	],
	"buffers":[
		{
			"uri":"s05_sculpture_data.bin",
			"byteLength":175032,
			"name":"main_buffer"
		}
	],
	"bufferViews":[
		{
			"buffer":0,
			"byteLength":16632,
			"target":34963
		},
		{
			"buffer":0,
			"byteOffset":16632,
			"byteLength":39600,
			"target":34962
		},
		{
			"buffer":0,
			"byteOffset":56232,
			"byteLength":52800,
			"target":34962
		},
		{
			"buffer":0,
			"byteOffset":109032,
			"byteLength":26400,
			"target":34962
		},
		{
			"buffer":0,
			"byteOffset":135432,
			"byteLength":39600,
			"target":34962
		}
	],
	"nodes":[
		{
			"children":[1
			],
			"name":"Root"
		},
		{
			"name":"geo1",
			"mesh":0
		}
	],
	"meshes":[
		{
			"primitives":[
				{
					"attributes":{
						"POSITION":1,
						"TANGENT":2,
						"NORMAL":4,
						"TEXCOORD_0":3
					},
					"indices":0
				}
			],
			"name":"OUT_geo"
		}
	],
	"scenes":[
		{
			"nodes":[0
			]
		}
	],
	"scene":0
}
