{
	"asset":{
		"version":"2.0",
		"generator":"Houdini GLTF 2.0 Exporter"
	},
	"accessors":[
		{
			"bufferView":0,
			"componentType":5121,
			"count":6,
			"type":"SCALAR",
			"min":[0
			],
			"max":[3
			]
		},
		{
			"bufferView":1,
			"componentType":5126,
			"count":4,
			"type":"VEC3",
			"min":[-9.5,-0.100000001,-5
			],
			"max":[9.5,-0.100000001,5
			]
		},
		{
			"bufferView":2,
			"componentType":5126,
			"count":4,
			"type":"VEC3",
			"min":[0,1,0
			],
			"max":[0,1,0
			]
		},
		{
			"bufferView":3,
			"componentType":5126,
			"count":4,
			"type":"VEC4",
			"min":[0.99999994,0,0,1
			],
			"max":[1,0,0,1
			]
		},
		{
			"bufferView":4,
			"componentType":5126,
			"count":4,
			"type":"VEC2",
			"min":[0,0
			],
			"max":[1,1
			]
		}
	],
	"buffers":[
		{
			"uri":"voronoi8_back_data.bin",
			"byteLength":200,
			"name":"main_buffer"
		}
	],
	"bufferViews":[
		{
			"buffer":0,
			"byteLength":6,
			"target":34963
		},
		{
			"buffer":0,
			"byteOffset":8,
			"byteLength":48,
			"target":34962
		},
		{
			"buffer":0,
			"byteOffset":56,
			"byteLength":48,
			"target":34962
		},
		{
			"buffer":0,
			"byteOffset":104,
			"byteLength":64,
			"target":34962
		},
		{
			"buffer":0,
			"byteOffset":168,
			"byteLength":32,
			"target":34962
		}
	],
	"nodes":[
		{
			"children":[1
			],
			"name":"Root"
		},
		{
			"name":"back_plane",
			"mesh":0
		}
	],
	"meshes":[
		{
			"primitives":[
				{
					"attributes":{
						"POSITION":1,
						"TANGENT":3,
						"TEXCOORD_0":4,
						"NORMAL":2
					},
					"indices":0
				}
			],
			"name":"object_merge1"
		}
	],
	"scenes":[
		{
			"nodes":[0
			]
		}
	],
	"scene":0
}
